# xmcd CD database file
#
# Track frame offsets:
#	150
#	18972
#	38680
#	52375
#	71110
#	93920
#	116452
#	142355
#	168022
#	181400
#
# Disc length: 2775 seconds
#
# Revision: 0
# Processed by: cddbd v1.5PL3 Copyright (c) Steve Scherf et al.
# Submitted via: CDex 1.50beta8
#
DISCID=8a0ad50a
DTITLE=THE SALINGER - Let It Rock
DYEAR=1999
DGENRE=Punk
TTITLE0=FLASHY!!!
TTITLE1=青い太陽(ALBUM VERSION)
TTITLE2=SiX
TTITLE3=DON'T LOSE YOUR GLORY
TTITLE4=ROCK'N ROLL and EVOL(ALBUM VERSION)
TTITLE5=D.I.Y
TTITLE6=HOLIDAY(ALBUM VERSION)
TTITLE7=そのリズム
TTITLE8=東へ向かって
TTITLE9=DOG MAN RACE(LIVE VERSION)
EXTD=YEAR: 1999
EXTT0=
EXTT1=
EXTT2=
EXTT3=
EXTT4=
EXTT5=
EXTT6=
EXTT7=
EXTT8=
EXTT9=
PLAYORDER=
